<?xml version="1.0" encoding="iso-8859-1"?>
<!-- Generator: Adobe Illustrator 19.0.0, SVG Export Plug-In . SVG Version: 6.00 Build 0)  -->
<svg version="1.1" id="Capa_1" xmlns="http://www.w3.org/2000/svg" xmlns:xlink="http://www.w3.org/1999/xlink" x="0px" y="0px"
	 viewBox="0 0 512.005 512.005" style="enable-background:new 0 0 512.005 512.005;" xml:space="preserve">
<g>
	<g>
		
			<rect x="277.188" y="58.999" transform="matrix(0.7071 -0.7071 0.7071 0.7071 44.6349 291.5472)" width="194.116" height="65.791"/>
	</g>
</g>
<g>
	<g>
		<path d="M488.509,68.892l-1.023-1.023L345.271,210.084c-17.353,25.179-37.835,49.626-61.076,72.866
			c-24.162,24.162-49.586,45.317-75.768,63.069L67.419,487.03l3.075,3.074l0.429,0.413c28.845,26.654,77.54,28.569,137.112,5.393
			c55.875-21.737,116.396-63.456,170.409-117.469c54.659-54.659,96.62-115.809,118.149-172.185
			c10.29-26.946,15.411-51.586,15.411-73.124C512.005,106.449,504.142,84.526,488.509,68.892z"/>
	</g>
</g>
<g>
	<g>
		
			<rect x="-5.393" y="341.447" transform="matrix(0.7071 -0.7071 0.7071 0.7071 -237.6261 174.3659)" width="194.116" height="65.152"/>
	</g>
</g>
<g>
</g>
<g>
</g>
<g>
</g>
<g>
</g>
<g>
</g>
<g>
</g>
<g>
</g>
<g>
</g>
<g>
</g>
<g>
</g>
<g>
</g>
<g>
</g>
<g>
</g>
<g>
</g>
<g>
</g>
</svg>
