<?xml version="1.0" encoding="iso-8859-1"?>
<!-- Generator: Adobe Illustrator 19.0.0, SVG Export Plug-In . SVG Version: 6.00 Build 0)  -->
<svg version="1.1" id="Capa_1" xmlns="http://www.w3.org/2000/svg" xmlns:xlink="http://www.w3.org/1999/xlink" x="0px" y="0px"
	 viewBox="0 0 512 512" style="enable-background:new 0 0 512 512;" xml:space="preserve">
<g>
	<g>
		<path d="M286.416,217.36c-8.852-7.907-20.273-12.262-32.159-12.262c-26.632,0-48.299,21.667-48.299,48.299
			c0,26.632,21.667,48.299,48.299,48.299c13.062,0,25.298-5.132,34.455-14.451c3.185-3.241,5.879-6.892,8.037-10.884v-45.944h0
			C294.09,225.5,290.624,221.118,286.416,217.36z"/>
	</g>
</g>
<g>
	<g>
		<path d="M437.019,74.98C388.667,26.629,324.38,0,256,0S123.332,26.629,74.98,74.98C26.629,123.332,0,187.62,0,256
			s26.629,132.668,74.98,181.02C123.332,485.371,187.62,512,256,512s132.667-26.629,181.019-74.98
			C485.371,388.668,512,324.38,512,256S485.371,123.332,437.019,74.98z M425.859,311.663c0,35.596-28.959,64.555-64.555,64.555
			c-33.147,0-60.526-25.116-64.138-57.314c-12.632,8.316-27.407,12.792-42.909,12.792c-43.174,0-78.299-35.125-78.299-78.299
			s35.124-78.299,78.299-78.299c15.19,0,29.904,4.407,42.492,12.549v-12.26h30v136.276c0,19.054,15.501,34.555,34.555,34.555
			c19.054,0,34.555-15.501,34.555-34.555v-58.266c0-78.186-63.609-141.795-141.795-141.795s-141.795,63.609-141.795,141.795
			s63.609,141.795,141.795,141.795c14.705,0,29.191-2.238,43.056-6.651l9.099,28.587c-16.81,5.351-34.358,8.064-52.155,8.064
			c-94.729,0-171.795-77.067-171.795-171.795S159.336,81.602,254.064,81.602s171.795,77.067,171.795,171.795V311.663z"/>
	</g>
</g>
<g>
</g>
<g>
</g>
<g>
</g>
<g>
</g>
<g>
</g>
<g>
</g>
<g>
</g>
<g>
</g>
<g>
</g>
<g>
</g>
<g>
</g>
<g>
</g>
<g>
</g>
<g>
</g>
<g>
</g>
</svg>
