<?xml version="1.0" encoding="iso-8859-1"?>
<!-- Generator: Adobe Illustrator 19.0.0, SVG Export Plug-In . SVG Version: 6.00 Build 0)  -->
<svg version="1.1" id="Capa_1" xmlns="http://www.w3.org/2000/svg" xmlns:xlink="http://www.w3.org/1999/xlink" x="0px" y="0px"
	 viewBox="0 0 512 512" style="enable-background:new 0 0 512 512;" xml:space="preserve">
<g>
	<g>
		<rect x="384.235" y="185.379" width="127.765" height="43.637"/>
	</g>
</g>
<g>
	<g>
		<rect y="185.379" width="127.765" height="43.637"/>
	</g>
</g>
<g>
	<g>
		<path d="M510.918,155.407c-5.455-22.927-30.717-45.641-70.926-63.328C390.846,70.462,325.503,58.556,256,58.556
			c-70.32,0-136.198,12.144-185.497,34.195C31.13,110.362,6.52,132.77,1.129,155.407h126.638v-11.651l11.658-2.655
			c36.31-8.268,75.247-12.462,115.73-12.462c41.182,0,80.708,4.326,117.479,12.858l11.598,2.691v11.218H510.918z"/>
	</g>
</g>
<g>
	<g>
		<path d="M256,269.996c-29.099,0-52.771,23.674-52.771,52.772c0,29.099,23.673,52.771,52.771,52.771s52.771-23.673,52.771-52.771
			S285.099,269.996,256,269.996z"/>
	</g>
</g>
<g>
	<g>
		<path d="M448.538,258.987h-94.277v-90.816c-31.24-6.347-64.519-9.56-99.107-9.56c-33.927,0-66.637,3.102-97.416,9.228v91.148
			H63.462L38.041,298.73v154.714h435.918V298.73L448.538,258.987z M256,405.512c-45.624,0-82.742-37.118-82.742-82.742
			s37.118-82.743,82.742-82.743s82.742,37.119,82.742,82.743C338.742,368.393,301.624,405.512,256,405.512z"/>
	</g>
</g>
<g>
</g>
<g>
</g>
<g>
</g>
<g>
</g>
<g>
</g>
<g>
</g>
<g>
</g>
<g>
</g>
<g>
</g>
<g>
</g>
<g>
</g>
<g>
</g>
<g>
</g>
<g>
</g>
<g>
</g>
</svg>
