<?xml version="1.0" encoding="iso-8859-1"?>
<!-- Generator: Adobe Illustrator 19.0.0, SVG Export Plug-In . SVG Version: 6.00 Build 0)  -->
<svg version="1.1" id="Capa_1" xmlns="http://www.w3.org/2000/svg" xmlns:xlink="http://www.w3.org/1999/xlink" x="0px" y="0px"
	 viewBox="0 0 512 512" style="enable-background:new 0 0 512 512;" xml:space="preserve">
<g>
	<g>
		<path d="M145.174,143.024c-10.871,31.018-17.039,63.72-18.429,97.929h114.467v-97.929H145.174z"/>
	</g>
</g>
<g>
	<g>
		<path d="M194.919,51.091c-14.926,19.671-27.419,40.325-37.488,61.88h83.781V1.183C228.343,12.512,211.569,29.147,194.919,51.091z"
			/>
	</g>
</g>
<g>
	<g>
		<path d="M25.642,143.024C10.739,173.351,1.977,206.509,0,240.953h96.687c1.296-33.784,6.976-66.593,16.944-97.929H25.642z"/>
	</g>
</g>
<g>
	<g>
		<path d="M126.771,271.005c1.551,36.826,8.691,69.507,18.677,97.929h95.764v-97.929H126.771z"/>
	</g>
</g>
<g>
	<g>
		<path d="M157.669,398.987c11.768,25.322,25.352,46.315,37.973,62.832c16.489,21.576,32.927,37.872,45.57,48.999v-111.83H157.669z"
			/>
	</g>
</g>
<g>
	<g>
		<path d="M366.552,143.024h-95.286v97.929h113.963C383.678,204.126,376.537,171.445,366.552,143.024z"/>
	</g>
</g>
<g>
	<g>
		<path d="M96.687,271.005H0c1.977,34.444,10.739,67.602,25.642,97.929h87.989C103.663,337.599,97.983,304.789,96.687,271.005z"/>
	</g>
</g>
<g>
	<g>
		<path d="M316.356,50.14c-16.28-21.304-32.513-37.463-45.092-48.579v111.411h83.065C342.562,87.649,328.977,66.656,316.356,50.14z"
			/>
	</g>
</g>
<g>
	<g>
		<path d="M74.664,74.642c-11.874,11.874-22.43,24.711-31.616,38.328h81.631v0.001c12.041-28.673,27.844-55.898,47.086-81.079
			c6.834-8.943,13.663-17.052,20.272-24.353C148.011,18.794,107.637,41.67,74.664,74.642z"/>
	</g>
</g>
<g>
	<g>
		<path d="M171.765,480.065c-19.243-25.181-35.045-52.406-47.086-81.079H43.048c9.186,13.617,19.742,26.455,31.616,38.328
			c32.974,32.973,73.348,55.849,117.373,67.102C185.428,497.117,178.599,489.009,171.765,480.065z"/>
	</g>
</g>
<g>
	<g>
		<path d="M387.321,398.988L387.321,398.988c-12.041,28.672-27.844,55.897-47.086,81.078c-6.834,8.944-13.663,17.052-20.272,24.352
			c44.026-11.254,84.4-34.13,117.373-67.102c11.874-11.874,22.43-24.711,31.616-38.328H387.321z"/>
	</g>
</g>
<g>
	<g>
		<path d="M271.265,398.987v111.366c12.807-11.32,29.371-27.815,45.815-49.486c14.926-19.672,27.419-40.325,37.488-61.88H271.265z"
			/>
	</g>
</g>
<g>
	<g>
		<path d="M437.336,74.643c-32.974-32.973-73.348-55.849-117.373-67.102c6.61,7.3,13.438,15.408,20.272,24.352
			c19.243,25.181,35.045,52.406,47.086,81.079h81.631C459.766,99.354,449.209,86.516,437.336,74.643z"/>
	</g>
</g>
<g>
	<g>
		<path d="M486.358,143.024H398.37c9.967,31.336,15.648,64.146,16.944,97.929H512C510.023,206.509,501.261,173.351,486.358,143.024z
			"/>
	</g>
</g>
<g>
	<g>
		<path d="M271.265,271.005v97.929h95.561c10.872-31.018,17.039-63.72,18.429-97.929H271.265z"/>
	</g>
</g>
<g>
	<g>
		<path d="M415.313,271.005c-1.296,33.784-6.976,66.593-16.944,97.929h87.989c14.903-30.327,23.664-63.485,25.642-97.929H415.313z"
			/>
	</g>
</g>
<g>
</g>
<g>
</g>
<g>
</g>
<g>
</g>
<g>
</g>
<g>
</g>
<g>
</g>
<g>
</g>
<g>
</g>
<g>
</g>
<g>
</g>
<g>
</g>
<g>
</g>
<g>
</g>
<g>
</g>
</svg>
