<?xml version="1.0" encoding="iso-8859-1"?>
<!-- Generator: Adobe Illustrator 19.0.0, SVG Export Plug-In . SVG Version: 6.00 Build 0)  -->
<svg version="1.1" id="Capa_1" xmlns="http://www.w3.org/2000/svg" xmlns:xlink="http://www.w3.org/1999/xlink" x="0px" y="0px"
	 viewBox="0 0 512 512" style="enable-background:new 0 0 512 512;" xml:space="preserve">
<g>
	<g>
		<path d="M100.757,0v512h310.486V0H100.757z M204.333,441h-44.666v-30h44.666V441z M204.333,383.667h-44.666v-30h44.666V383.667z
			 M204.333,326.333h-44.666v-30h44.666V326.333z M278.333,441h-44.666v-30h44.666V441z M278.333,383.667h-44.666v-30h44.666
			V383.667z M278.333,326.333h-44.666v-30h44.666V326.333z M352.333,441h-44.666v-30h44.666V441z M352.333,383.667h-44.666v-30
			h44.666V383.667z M352.333,326.333h-44.666v-30h44.666V326.333z M352.746,250.685H159.254V58.693h193.492V250.685z"/>
	</g>
</g>
<g>
	<g>
		<rect x="189.25" y="88.69" width="133.49" height="131.99"/>
	</g>
</g>
<g>
</g>
<g>
</g>
<g>
</g>
<g>
</g>
<g>
</g>
<g>
</g>
<g>
</g>
<g>
</g>
<g>
</g>
<g>
</g>
<g>
</g>
<g>
</g>
<g>
</g>
<g>
</g>
<g>
</g>
</svg>
