<?xml version="1.0" encoding="iso-8859-1"?>
<!-- Generator: Adobe Illustrator 19.0.0, SVG Export Plug-In . SVG Version: 6.00 Build 0)  -->
<svg version="1.1" id="Capa_1" xmlns="http://www.w3.org/2000/svg" xmlns:xlink="http://www.w3.org/1999/xlink" x="0px" y="0px"
	 viewBox="0 0 511.999 511.999" style="enable-background:new 0 0 511.999 511.999;" xml:space="preserve">
<g>
	<g>
		<path d="M255.998,101.973c-42.447,0-76.979,34.533-76.979,76.979s34.533,76.979,76.979,76.979
			c42.447,0,76.979-34.533,76.979-76.979S298.445,101.973,255.998,101.973z"/>
	</g>
</g>
<g>
	<g>
		<path d="M255.998,0C155.086,0,72.988,82.098,72.988,183.01c0,41.433,29.079,107.172,86.431,195.392
			c41.902,64.455,84.401,118.228,84.826,118.763l11.754,14.834l11.754-14.834c0.425-0.536,42.924-54.308,84.826-118.763
			c57.351-88.219,86.431-153.959,86.431-195.392C439.009,82.098,356.91,0,255.998,0z M255.998,285.923
			c-58.984,0-106.971-47.987-106.971-106.971c0-58.984,47.987-106.971,106.971-106.971c58.984,0,106.971,47.987,106.971,106.971
			C362.97,237.936,314.983,285.923,255.998,285.923z"/>
	</g>
</g>
<g>
</g>
<g>
</g>
<g>
</g>
<g>
</g>
<g>
</g>
<g>
</g>
<g>
</g>
<g>
</g>
<g>
</g>
<g>
</g>
<g>
</g>
<g>
</g>
<g>
</g>
<g>
</g>
<g>
</g>
</svg>
