<?xml version="1.0" encoding="iso-8859-1"?>
<!-- Generator: Adobe Illustrator 19.0.0, SVG Export Plug-In . SVG Version: 6.00 Build 0)  -->
<svg version="1.1" id="Capa_1" xmlns="http://www.w3.org/2000/svg" xmlns:xlink="http://www.w3.org/1999/xlink" x="0px" y="0px"
	 viewBox="0 0 512 512" style="enable-background:new 0 0 512 512;" xml:space="preserve">
<g>
	<g>
		<path d="M242.43,91.53c-17.22,0-31.24,14.01-31.24,31.24c0,17.22,14.02,31.23,31.24,31.23c17.22,0,31.24-14.01,31.24-31.23
			C273.67,105.54,259.65,91.53,242.43,91.53z"/>
	</g>
</g>
<g>
	<g>
		<path d="M422.42,110.51h27.14v-57h-27.14V0H62.44v512h359.98v-53.51h27.14v-57h-27.14v-30h27.14V314.5h-27.14v-30h27.14v-57
			h-27.14v-30h27.14v-56.99h-27.14L422.42,110.51L422.42,110.51z M242.43,61.53c33.76,0,61.24,27.47,61.24,61.24
			c0,33.76-27.48,61.23-61.24,61.23c-33.77,0-61.24-27.47-61.24-61.23C181.19,89,208.66,61.53,242.43,61.53z M288.18,451.65h-91.5
			v-30h91.5V451.65z M288.18,396.49h-91.5v-30h91.5V396.49z M337.49,323.72h-30v-45.81c0-25.24-20.54-45.78-45.78-45.78h-37.27
			c-25.24,0-45.78,20.54-45.78,45.78v45.81h-30v-45.81c0-41.79,33.99-75.78,75.78-75.78h37.27c41.78,0,75.78,33.99,75.78,75.78
			V323.72z"/>
	</g>
</g>
<g>
</g>
<g>
</g>
<g>
</g>
<g>
</g>
<g>
</g>
<g>
</g>
<g>
</g>
<g>
</g>
<g>
</g>
<g>
</g>
<g>
</g>
<g>
</g>
<g>
</g>
<g>
</g>
<g>
</g>
</svg>
