<?xml version="1.0" encoding="iso-8859-1"?>
<!-- Generator: Adobe Illustrator 19.0.0, SVG Export Plug-In . SVG Version: 6.00 Build 0)  -->
<svg version="1.1" id="Capa_1" xmlns="http://www.w3.org/2000/svg" xmlns:xlink="http://www.w3.org/1999/xlink" x="0px" y="0px"
	 viewBox="0 0 512 512" style="enable-background:new 0 0 512 512;" xml:space="preserve">
<g>
	<g>
		<rect x="69.65" y="107.11" width="105" height="298.49"/>
	</g>
</g>
<g>
	<g>
		<rect x="271.25" y="202.79" width="169" height="37.5"/>
	</g>
</g>
<g>
	<g>
		<rect x="258.94" y="34.64" width="193.62" height="66.65"/>
	</g>
</g>
<g>
	<g>
		<path d="M204.648,131.294v304.303H39.653V130.74H0v346.62h512V131.294H204.648z M282.625,426.3h-30.25v-30.25h30.25V426.3z
			 M282.625,379.3h-30.25v-30.25h30.25V379.3z M282.625,332.3h-30.25v-30.25h30.25V332.3z M342.375,426.3h-30.25v-30.25h30.25V426.3
			z M342.375,379.3h-30.25v-30.25h30.25V379.3z M342.375,332.3h-30.25v-30.25h30.25V332.3z M402.125,426.3h-30.25v-30.25h30.25
			V426.3z M402.125,379.3h-30.25v-30.25h30.25V379.3z M402.125,332.3h-30.25v-30.25h30.25V332.3z M461.375,426.3h-30.25v-30.25
			h30.25V426.3z M431.25,382.406V302.05h30v80.356H431.25z M470.25,270.292h-229v-97.5h229V270.292z"/>
	</g>
</g>
<g>
</g>
<g>
</g>
<g>
</g>
<g>
</g>
<g>
</g>
<g>
</g>
<g>
</g>
<g>
</g>
<g>
</g>
<g>
</g>
<g>
</g>
<g>
</g>
<g>
</g>
<g>
</g>
<g>
</g>
</svg>
