<?xml version="1.0" encoding="iso-8859-1"?>
<!-- Generator: Adobe Illustrator 19.0.0, SVG Export Plug-In . SVG Version: 6.00 Build 0)  -->
<svg version="1.1" id="Capa_1" xmlns="http://www.w3.org/2000/svg" xmlns:xlink="http://www.w3.org/1999/xlink" x="0px" y="0px"
	 viewBox="0 0 512 512" style="enable-background:new 0 0 512 512;" xml:space="preserve">
<g>
	<g>
		<path d="M468.475,208.819C466.56,93.349,372.049,0,256.131,0h-0.262C139.951,0,45.44,93.349,43.525,208.819H0v171.922h43.479
			v8.253c0,51.373,41.795,93.168,93.168,93.168h12.099V512h111.147v-90.824H148.746v30.986h-12.099
			c-34.831,0-63.168-28.337-63.168-63.168v-8.253h36.333V208.819H73.525C75.436,109.891,156.493,30,255.869,30h0.262
			c99.376,0,180.434,79.891,182.344,178.819h-36.288v171.922H512V208.819H468.475z"/>
	</g>
</g>
<g>
</g>
<g>
</g>
<g>
</g>
<g>
</g>
<g>
</g>
<g>
</g>
<g>
</g>
<g>
</g>
<g>
</g>
<g>
</g>
<g>
</g>
<g>
</g>
<g>
</g>
<g>
</g>
<g>
</g>
</svg>
