<?xml version="1.0" encoding="iso-8859-1"?>
<!-- Generator: Adobe Illustrator 19.0.0, SVG Export Plug-In . SVG Version: 6.00 Build 0)  -->
<svg version="1.1" id="Capa_1" xmlns="http://www.w3.org/2000/svg" xmlns:xlink="http://www.w3.org/1999/xlink" x="0px" y="0px"
	 viewBox="0 0 511.999 511.999" style="enable-background:new 0 0 511.999 511.999;" xml:space="preserve">
<g>
	<g>
		<path d="M0,146.588v353.638h120.668V146.588H0z M75.334,213.655H45.661v-29.673h29.673V213.655z"/>
	</g>
</g>
<g>
	<g>
		<path d="M500.192,303.075c0-12.543-4.328-24.087-11.553-33.244c14.096-9.706,23.36-25.948,23.36-44.32
			c0-29.655-24.126-53.782-53.782-53.782H285.873c-2.603,0-4.922-1.556-5.91-3.963c-1-2.439-0.379-5.288,1.547-7.088l70.067-65.529
			c10.873-10.169,16.997-23.907,17.244-38.685c0.246-14.696-5.35-28.559-15.764-39.064c-20.933-22.183-56.005-23.297-78.317-2.43
			L150.668,131.293v344.74l55.829,20.936c26.571,9.964,54.433,15.017,82.812,15.017h133.487c29.656,0,53.782-24.127,53.782-53.782
			c0-12.54-4.313-24.09-11.535-33.246c14.088-9.707,23.342-25.953,23.342-44.317c0-12.543-4.328-24.087-11.553-33.245
			C490.928,337.688,500.192,321.445,500.192,303.075z"/>
	</g>
</g>
<g>
</g>
<g>
</g>
<g>
</g>
<g>
</g>
<g>
</g>
<g>
</g>
<g>
</g>
<g>
</g>
<g>
</g>
<g>
</g>
<g>
</g>
<g>
</g>
<g>
</g>
<g>
</g>
<g>
</g>
</svg>
