<?xml version="1.0" encoding="iso-8859-1"?>
<!-- Generator: Adobe Illustrator 19.0.0, SVG Export Plug-In . SVG Version: 6.00 Build 0)  -->
<svg version="1.1" id="Capa_1" xmlns="http://www.w3.org/2000/svg" xmlns:xlink="http://www.w3.org/1999/xlink" x="0px" y="0px"
	 viewBox="0 0 512 512" style="enable-background:new 0 0 512 512;" xml:space="preserve">
<g>
	<g>
		<path d="M124.195,134.94c-49.98,0-90.5,40.52-90.5,90.5v106.5h181v-106.5C214.695,175.46,174.185,134.94,124.195,134.94z"/>
	</g>
</g>
<g>
	<g>
		<path d="M372.805,119.94h-96.988V86h90.878V0h-120.88l0.002,119.94h-63.322c9.75,5.39,18.81,12.2,26.91,20.3
			c22.76,22.76,35.29,53.02,35.29,85.2V332h233.61V225.44C478.305,167.27,430.975,119.94,372.805,119.94z M423.385,296h-63v-30h63
			V296z"/>
	</g>
</g>
<g>
	<g>
		<rect x="217.54" y="362" width="89.68" height="150"/>
	</g>
</g>
<g>
</g>
<g>
</g>
<g>
</g>
<g>
</g>
<g>
</g>
<g>
</g>
<g>
</g>
<g>
</g>
<g>
</g>
<g>
</g>
<g>
</g>
<g>
</g>
<g>
</g>
<g>
</g>
<g>
</g>
</svg>
