<?xml version="1.0" encoding="iso-8859-1"?>
<!-- Generator: Adobe Illustrator 19.0.0, SVG Export Plug-In . SVG Version: 6.00 Build 0)  -->
<svg version="1.1" id="Capa_1" xmlns="http://www.w3.org/2000/svg" xmlns:xlink="http://www.w3.org/1999/xlink" x="0px" y="0px"
	 viewBox="0 0 512 512" style="enable-background:new 0 0 512 512;" xml:space="preserve">
<g>
	<g>
		<rect x="250.7" y="94.251" width="186.99" height="77.69"/>
	</g>
</g>
<g>
	<g>
		<rect x="70.75" y="94.251" width="79.68" height="318.99"/>
	</g>
</g>
<g>
	<g>
		<path d="M0,18.436v475.129h512V18.436H0z M180.435,443.238H40.751V64.251h139.684V443.238z M279.812,421.779h-59.611v-30h59.611
			V421.779z M279.812,350.246h-59.611v-30h59.611V350.246z M279.812,278.712h-59.611v-30h59.611V278.712z M372.806,421.779h-59.611
			v-30h59.611V421.779z M372.806,350.246h-59.611v-30h59.611V350.246z M372.806,278.712h-59.611v-30h59.611V278.712z
			 M465.799,421.779h-59.611v-30h59.611V421.779z M465.799,350.246h-59.611v-30h59.611V350.246z M465.799,278.712h-59.611v-30
			h59.611V278.712z M467.685,201.941H220.7V64.251h246.985V201.941z"/>
	</g>
</g>
<g>
</g>
<g>
</g>
<g>
</g>
<g>
</g>
<g>
</g>
<g>
</g>
<g>
</g>
<g>
</g>
<g>
</g>
<g>
</g>
<g>
</g>
<g>
</g>
<g>
</g>
<g>
</g>
<g>
</g>
</svg>
