<?xml version="1.0" encoding="iso-8859-1"?>
<!-- Generator: Adobe Illustrator 19.0.0, SVG Export Plug-In . SVG Version: 6.00 Build 0)  -->
<svg version="1.1" id="Capa_1" xmlns="http://www.w3.org/2000/svg" xmlns:xlink="http://www.w3.org/1999/xlink" x="0px" y="0px"
	 viewBox="0 0 512 512" style="enable-background:new 0 0 512 512;" xml:space="preserve">
<g>
	<g>
		<polygon points="281.17,342.343 256,364.643 230.83,342.343 176.586,383.418 335.414,383.418 		"/>
	</g>
</g>
<g>
	<g>
		<path d="M0,41.343v91.108h512V41.343H0z M380,102.509h-30v-30h30V102.509z M425.667,102.509h-30v-30h30V102.509z M471.333,102.509
			h-30v-30h30V102.509z"/>
	</g>
</g>
<g>
	<g>
		<polygon points="170.796,249.093 232.32,303.583 255.22,323.873 256,324.563 256.78,323.873 279.68,303.583 341.204,249.093 		"/>
	</g>
</g>
<g>
	<g>
		<polygon points="304.08,322.063 365.066,368.247 365.066,268.039 		"/>
	</g>
</g>
<g>
	<g>
		<path d="M0,162.451v308.206h512V162.451H0z M395.067,413.418L395.067,413.418H116.934V219.093h278.133V413.418z"/>
	</g>
</g>
<g>
	<g>
		<polygon points="146.934,268.039 146.934,368.247 207.92,322.063 		"/>
	</g>
</g>
<g>
</g>
<g>
</g>
<g>
</g>
<g>
</g>
<g>
</g>
<g>
</g>
<g>
</g>
<g>
</g>
<g>
</g>
<g>
</g>
<g>
</g>
<g>
</g>
<g>
</g>
<g>
</g>
<g>
</g>
</svg>
