<?xml version="1.0" encoding="iso-8859-1"?>
<!-- Generator: Adobe Illustrator 19.0.0, SVG Export Plug-In . SVG Version: 6.00 Build 0)  -->
<svg version="1.1" id="Capa_1" xmlns="http://www.w3.org/2000/svg" xmlns:xlink="http://www.w3.org/1999/xlink" x="0px" y="0px"
	 viewBox="0 0 512.001 512.001" style="enable-background:new 0 0 512.001 512.001;" xml:space="preserve">
<g>
	<g>
		<path d="M455.55,56.496C419.118,20.064,370.679,0,319.157,0c-51.523,0-99.961,20.064-136.393,56.496
			c-36.432,36.431-56.496,84.871-56.496,136.393c0,33.723,8.599,66.125,24.754,94.703L19.638,407.487
			C7.393,418.662,0.442,433.943,0.062,450.516c-0.378,16.573,5.869,32.156,17.591,43.878c11.386,11.387,26.414,17.608,42.456,17.608
			c0.473,0,0.948-0.006,1.422-0.017c16.573-0.379,31.853-7.331,43.027-19.576l119.944-131.438
			c29.273,16.473,61.962,24.717,94.654,24.717c49.395,0,98.789-18.801,136.393-56.405
			C530.757,254.073,530.757,131.703,455.55,56.496z M419.579,293.311c-27.683,27.683-64.059,41.53-100.423,41.53
			c-36.373,0-72.733-13.84-100.422-41.53c-26.825-26.824-41.596-62.487-41.596-100.422c0-37.935,14.773-73.599,41.596-100.423
			c55.372-55.371,145.472-55.372,200.845,0c26.824,26.824,41.596,62.487,41.596,100.423
			C461.176,230.824,446.403,266.488,419.579,293.311z"/>
	</g>
</g>
<g>
	<g>
		<path d="M398.352,113.693c-21.834-21.833-50.515-32.751-79.196-32.751s-57.362,10.917-79.195,32.751
			c-21.154,21.154-32.804,49.279-32.804,79.196c0,29.917,11.65,58.042,32.804,79.196c43.669,43.668,114.722,43.669,158.391,0
			C442.021,228.416,442.021,157.362,398.352,113.693z"/>
	</g>
</g>
<g>
</g>
<g>
</g>
<g>
</g>
<g>
</g>
<g>
</g>
<g>
</g>
<g>
</g>
<g>
</g>
<g>
</g>
<g>
</g>
<g>
</g>
<g>
</g>
<g>
</g>
<g>
</g>
<g>
</g>
</svg>
