<?xml version="1.0" encoding="iso-8859-1"?>
<!-- Generator: Adobe Illustrator 19.0.0, SVG Export Plug-In . SVG Version: 6.00 Build 0)  -->
<svg version="1.1" id="Capa_1" xmlns="http://www.w3.org/2000/svg" xmlns:xlink="http://www.w3.org/1999/xlink" x="0px" y="0px"
	 viewBox="0 0 512 512" style="enable-background:new 0 0 512 512;" xml:space="preserve">
<g>
	<g>
		<rect x="212.87" y="264.05" width="86.25" height="62.34"/>
	</g>
</g>
<g>
	<g>
		<rect x="329.13" y="356.39" width="87.37" height="62.34"/>
	</g>
</g>
<g>
	<g>
		<rect x="212.87" y="356.39" width="86.25" height="62.34"/>
	</g>
</g>
<g>
	<g>
		<rect x="95.5" y="356.39" width="87.37" height="62.34"/>
	</g>
</g>
<g>
	<g>
		<rect x="329.13" y="264.05" width="87.37" height="62.34"/>
	</g>
</g>
<g>
	<g>
		<polygon points="0,17.665 0,116.035 74.36,116.035 74.36,61.665 164.84,61.665 164.84,116.035 347.12,116.035 347.12,61.665 
			437.6,61.665 437.6,116.035 512,116.035 512,17.665 		"/>
	</g>
</g>
<g>
	<g>
		<path d="M437.6,146.035v43.74h-90.48v-43.74H164.84v43.74H74.36v-43.74H0v348.3h512v-348.3H437.6z M446.5,448.735h-381v-214.68
			h381V448.735z"/>
	</g>
</g>
<g>
	<g>
		<rect x="95.5" y="264.05" width="87.37" height="62.34"/>
	</g>
</g>
<g>
	<g>
		<polygon points="104.36,91.665 104.36,116.035 104.36,146.035 104.36,159.775 134.84,159.775 134.84,146.035 134.84,116.035 
			134.84,91.665 		"/>
	</g>
</g>
<g>
	<g>
		<polygon points="377.12,91.665 377.12,116.035 377.12,146.035 377.12,159.775 407.6,159.775 407.6,146.035 407.6,116.035 
			407.6,91.665 		"/>
	</g>
</g>
<g>
</g>
<g>
</g>
<g>
</g>
<g>
</g>
<g>
</g>
<g>
</g>
<g>
</g>
<g>
</g>
<g>
</g>
<g>
</g>
<g>
</g>
<g>
</g>
<g>
</g>
<g>
</g>
<g>
</g>
</svg>
