<?xml version="1.0" encoding="iso-8859-1"?>
<!-- Generator: Adobe Illustrator 19.0.0, SVG Export Plug-In . SVG Version: 6.00 Build 0)  -->
<svg version="1.1" id="Capa_1" xmlns="http://www.w3.org/2000/svg" xmlns:xlink="http://www.w3.org/1999/xlink" x="0px" y="0px"
	 viewBox="0 0 512.001 512.001" style="enable-background:new 0 0 512.001 512.001;" xml:space="preserve">
<g>
	<g>
		
			<rect x="-4.301" y="342.189" transform="matrix(0.7071 -0.7071 0.7071 0.7071 -237.8689 175.016)" width="193.258" height="64.903"/>
	</g>
</g>
<g>
	<g>
		
			<rect x="277.233" y="60.812" transform="matrix(0.7071 -0.7071 0.7071 0.7071 43.3291 291.7701)" width="193.258" height="65.539"/>
	</g>
</g>
<g>
	<g>
		<path d="M487.594,70.665l-1.063-1.063L345.386,210.746c-17.375,25.29-37.918,49.84-61.25,73.172
			c-24.24,24.239-49.755,45.438-76.026,63.199L68.13,487.098l3.107,3.107l0.426,0.41c28.719,26.536,77.207,28.44,136.533,5.361
			c55.657-21.652,115.941-63.209,169.746-117.014c54.448-54.448,96.245-115.36,117.691-171.516
			c10.249-26.837,15.35-51.377,15.35-72.827C510.983,108.052,503.157,86.228,487.594,70.665z"/>
	</g>
</g>
<g>
	<g>
		<path d="M141.062,140.043c-19.402,19.4-27.24,46.971-20.964,73.753l29.159-6.832c-3.896-16.621,0.958-33.72,12.982-45.745
			c12.022-12.022,29.122-16.874,45.743-12.98l6.831-29.158C188.033,112.806,160.462,120.642,141.062,140.043z"/>
	</g>
</g>
<g>
	<g>
		<path d="M99.243,98.223c-34.411,34.41-48.309,83.318-37.177,130.829l29.159-6.832c-8.751-37.35,2.161-75.789,29.195-102.82
			c27.031-27.031,65.466-37.943,102.817-29.192l6.832-29.159C182.559,49.917,133.652,63.814,99.243,98.223z"/>
	</g>
</g>
<g>
	<g>
		<path d="M143.097,6.886c-32.184,8.819-61.733,26.017-85.451,49.737c-23.72,23.72-40.92,53.269-49.739,85.452
			c-8.541,31.163-9.151,64.296-1.766,95.813l29.159-6.832C22.253,175.389,38.526,118.096,78.822,77.8
			c40.294-40.294,97.585-56.562,153.254-43.518l6.832-29.159C207.39-2.262,174.259-1.653,143.097,6.886z"/>
	</g>
</g>
<g>
</g>
<g>
</g>
<g>
</g>
<g>
</g>
<g>
</g>
<g>
</g>
<g>
</g>
<g>
</g>
<g>
</g>
<g>
</g>
<g>
</g>
<g>
</g>
<g>
</g>
<g>
</g>
<g>
</g>
</svg>
