<?xml version="1.0" encoding="iso-8859-1"?>
<!-- Generator: Adobe Illustrator 19.0.0, SVG Export Plug-In . SVG Version: 6.00 Build 0)  -->
<svg version="1.1" id="Capa_1" xmlns="http://www.w3.org/2000/svg" xmlns:xlink="http://www.w3.org/1999/xlink" x="0px" y="0px"
	 viewBox="0 0 512 512" style="enable-background:new 0 0 512 512;" xml:space="preserve">
<g>
	<g>
		<path d="M369.448,194.373c-12.249-20.008-29.371-30.235-50.889-30.396c-0.165-0.002-0.333-0.002-0.498-0.002
			c-13.032,0-25.975,3.822-37.465,11.07L256,190.453l-24.556-15.383c-11.528-7.271-24.474-11.095-37.504-11.095
			c-0.167,0-0.332,0-0.499,0.002c-21.518,0.16-38.64,10.388-50.89,30.396c-12.328,20.136-12.562,44.185-0.642,65.98h-0.001
			c10.641,19.455,28.548,36.306,45.867,52.601c3.186,2.998,6.481,6.099,9.657,9.148c11.37,10.917,22.985,21.537,34.219,31.808
			c7.984,7.3,16.159,14.773,24.349,22.446c8.189-7.672,16.363-15.145,24.345-22.443c11.234-10.271,22.852-20.893,34.222-31.811
			c3.176-3.05,6.47-6.149,9.656-9.146c17.319-16.296,35.227-33.147,45.868-52.603C382.01,238.557,381.776,214.508,369.448,194.373z"
			/>
	</g>
</g>
<g>
	<g>
		<path d="M437.019,74.98C388.667,26.629,324.38,0,256,0S123.332,26.629,74.98,74.98C26.629,123.333,0,187.62,0,256
			s26.629,132.667,74.98,181.02C123.332,485.371,187.62,512,256,512s132.667-26.629,181.019-74.98
			C485.371,388.667,512,324.38,512,256S485.371,123.333,437.019,74.98z M396.412,274.749c-12.93,23.642-32.604,42.153-51.631,60.057
			c-3.19,3.001-6.351,5.975-9.436,8.936c-11.635,11.173-23.39,21.92-34.757,32.313c-11.227,10.265-22.836,20.879-34.2,31.79
			L256,417.819l-10.389-9.975c-11.365-10.912-22.975-21.527-34.204-31.793c-11.366-10.393-23.12-21.138-34.754-32.31
			c-3.085-2.962-6.246-5.936-9.437-8.938c-19.026-17.902-38.7-36.414-51.628-60.055h-0.001
			c-17.217-31.483-16.715-66.488,1.377-96.039c22.45-36.668,53.857-44.565,76.252-44.733c18.99-0.109,37.691,5.285,54.192,15.693
			l8.591,5.382l8.63-5.406c16.462-10.384,35.204-15.765,54.153-15.669c22.395,0.168,53.802,8.065,76.252,44.733
			C413.127,208.261,413.629,243.266,396.412,274.749z"/>
	</g>
</g>
<g>
</g>
<g>
</g>
<g>
</g>
<g>
</g>
<g>
</g>
<g>
</g>
<g>
</g>
<g>
</g>
<g>
</g>
<g>
</g>
<g>
</g>
<g>
</g>
<g>
</g>
<g>
</g>
<g>
</g>
</svg>
