<?xml version="1.0" encoding="iso-8859-1"?>
<!-- Generator: Adobe Illustrator 19.0.0, SVG Export Plug-In . SVG Version: 6.00 Build 0)  -->
<svg version="1.1" id="Capa_1" xmlns="http://www.w3.org/2000/svg" xmlns:xlink="http://www.w3.org/1999/xlink" x="0px" y="0px"
	 viewBox="0 0 512 512" style="enable-background:new 0 0 512 512;" xml:space="preserve">
<g>
	<g>
		<path d="M256,308.808c-14.101,0-25.573,11.472-25.573,25.572c0,6.456,2.418,12.623,6.809,17.364l3.995,4.313v46.774h29.537
			v-46.774l3.995-4.313c4.391-4.741,6.809-10.907,6.809-17.364C281.573,320.279,270.101,308.808,256,308.808z"/>
	</g>
</g>
<g>
	<g>
		<path d="M396.31,197.64v-57.33C396.31,62.942,333.367,0,256,0S115.69,62.942,115.69,140.31v57.33H66.365V512h379.269V197.64
			H396.31z M300.768,367.301v65.531h-89.537v-65.531c-7.004-9.504-10.804-20.983-10.804-32.921c0-30.643,24.93-55.572,55.573-55.572
			c30.642,0,55.572,24.93,55.572,55.572C311.573,346.317,307.773,357.797,300.768,367.301z M328.945,197.64H183.057v-54.696
			C183.057,102.658,215.714,70,256,70s72.944,32.658,72.944,72.944V197.64z"/>
	</g>
</g>
<g>
</g>
<g>
</g>
<g>
</g>
<g>
</g>
<g>
</g>
<g>
</g>
<g>
</g>
<g>
</g>
<g>
</g>
<g>
</g>
<g>
</g>
<g>
</g>
<g>
</g>
<g>
</g>
<g>
</g>
</svg>
