<?xml version="1.0" encoding="iso-8859-1"?>
<!-- Generator: Adobe Illustrator 19.0.0, SVG Export Plug-In . SVG Version: 6.00 Build 0)  -->
<svg version="1.1" id="Capa_1" xmlns="http://www.w3.org/2000/svg" xmlns:xlink="http://www.w3.org/1999/xlink" x="0px" y="0px"
	 viewBox="0 0 512 512" style="enable-background:new 0 0 512 512;" xml:space="preserve">
<g>
	<g>
		<path d="M355.823,102.297l-15.814,25.494c12.83,7.958,20.489,21.687,20.489,36.724c0,15.036-7.659,28.763-20.489,36.723
			l15.814,25.492c21.712-13.47,34.675-36.728,34.675-62.215C390.498,139.025,377.535,115.766,355.823,102.297z"/>
	</g>
</g>
<g>
	<g>
		<path d="M388.114,51L372.3,76.494c30.739,19.067,49.091,51.973,49.091,88.021c0,36.047-18.352,68.951-49.092,88.019l15.815,25.494
			c39.621-24.578,63.277-67.012,63.277-113.512C451.391,118.014,427.736,75.578,388.114,51z"/>
	</g>
</g>
<g>
	<g>
		<path d="M486.758,68.966C470.769,40.904,447.783,17.057,420.287,0l-15.814,25.494C453.018,55.607,482,107.578,482,164.517
			c0,56.936-28.982,108.905-77.527,139.018l15.814,25.494c27.495-17.056,50.48-40.903,66.471-68.963
			c16.514-28.98,25.242-62.02,25.242-95.549C512,130.988,503.272,97.946,486.758,68.966z"/>
	</g>
</g>
<g>
	<g>
		<path d="M151.502,164.515c0-15.037,7.659-28.766,20.489-36.724l-15.814-25.494c-21.712,13.469-34.675,36.728-34.675,62.218
			c0,25.488,12.963,48.746,34.675,62.215l15.814-25.492C159.161,193.278,151.502,179.55,151.502,164.515z"/>
	</g>
</g>
<g>
	<g>
		<path d="M90.609,164.516c0-36.049,18.352-68.954,49.091-88.021L123.887,51C84.265,75.577,60.61,118.014,60.61,164.516
			c0,46.5,23.655,88.935,63.277,113.513l15.814-25.494C108.961,233.467,90.609,200.563,90.609,164.516z"/>
	</g>
</g>
<g>
	<g>
		<path d="M30,164.517c0-56.938,28.982-108.909,77.527-139.023L91.713,0C64.217,17.057,41.231,40.904,25.242,68.966
			C8.729,97.946,0,130.987,0,164.517c0,33.53,8.729,66.569,25.242,95.549c15.99,28.06,38.976,51.907,66.471,68.963l15.814-25.494
			C58.982,273.422,30,221.452,30,164.517z"/>
	</g>
</g>
<g>
	<g>
		<polygon points="292.784,251.028 220.114,251.028 190.42,346.931 322.152,346.931 		"/>
	</g>
</g>
<g>
	<g>
		<polygon points="331.338,376.931 181.131,376.931 139.543,512 372.469,512 		"/>
	</g>
</g>
<g>
	<g>
		<path d="M256,103.772c-33.493,0-60.742,27.249-60.742,60.743c0,33.493,27.249,60.742,60.742,60.742
			c33.493,0,60.742-27.249,60.742-60.742C316.742,131.021,289.493,103.772,256,103.772z"/>
	</g>
</g>
<g>
</g>
<g>
</g>
<g>
</g>
<g>
</g>
<g>
</g>
<g>
</g>
<g>
</g>
<g>
</g>
<g>
</g>
<g>
</g>
<g>
</g>
<g>
</g>
<g>
</g>
<g>
</g>
<g>
</g>
</svg>
