<?xml version="1.0" encoding="iso-8859-1"?>
<!-- Generator: Adobe Illustrator 19.0.0, SVG Export Plug-In . SVG Version: 6.00 Build 0)  -->
<svg version="1.1" id="Capa_1" xmlns="http://www.w3.org/2000/svg" xmlns:xlink="http://www.w3.org/1999/xlink" x="0px" y="0px"
	 viewBox="0 0 512 512" style="enable-background:new 0 0 512 512;" xml:space="preserve">
<g>
	<g>
		<rect x="57.66" width="287" height="70"/>
	</g>
</g>
<g>
	<g>
		<polygon points="344.66,145.48 344.66,100 57.66,100 57.66,396 344.66,396 344.66,348 199.89,348 199.89,145.48 		"/>
	</g>
</g>
<g>
	<g>
		<path d="M57.66,426c0,0,0,86,0,86h287v-86H57.66z M213.49,483.42h-29.67v-29.67h29.67V483.42z"/>
	</g>
</g>
<g>
	<g>
		<polygon points="363.99,270.3 342.12,288.87 320.25,270.29 258.71,318 425.52,318 		"/>
	</g>
</g>
<g>
	<g>
		<polygon points="229.89,193.55 229.89,302.39 296.89,250.45 		"/>
	</g>
</g>
<g>
	<g>
		<polygon points="387.35,250.45 454.34,302.39 454.34,193.56 		"/>
	</g>
</g>
<g>
	<g>
		<polygon points="254.96,175.48 342.12,249.51 429.27,175.48 		"/>
	</g>
</g>
<g>
</g>
<g>
</g>
<g>
</g>
<g>
</g>
<g>
</g>
<g>
</g>
<g>
</g>
<g>
</g>
<g>
</g>
<g>
</g>
<g>
</g>
<g>
</g>
<g>
</g>
<g>
</g>
<g>
</g>
</svg>
