<?xml version="1.0" encoding="iso-8859-1"?>
<!-- Generator: Adobe Illustrator 19.0.0, SVG Export Plug-In . SVG Version: 6.00 Build 0)  -->
<svg version="1.1" id="Capa_1" xmlns="http://www.w3.org/2000/svg" xmlns:xlink="http://www.w3.org/1999/xlink" x="0px" y="0px"
	 viewBox="0 0 512 512" style="enable-background:new 0 0 512 512;" xml:space="preserve">
<g>
	<g>
		<path d="M418.943,379.99c-8.208,7.859-17.126,15.076-26.509,21.45l16.889,24.865c10.765-7.312,20.997-15.592,30.411-24.607
			L418.943,379.99z"/>
	</g>
</g>
<g>
	<g>
		<path d="M454.564,334.582c-5.734,9.942-12.365,19.469-19.708,28.318l23.131,19.195c8.426-10.154,16.034-21.087,22.615-32.496
			L454.564,334.582z"/>
	</g>
</g>
<g>
	<g>
		<path d="M443.345,68.314C399.292,24.261,340.721,0,278.421,0C199.267,0,126.173,39.637,82.895,106.031l25.181,16.415
			c37.709-57.851,101.389-92.387,170.345-92.387c112.034,0,203.18,91.146,203.18,203.18c0,28.048-5.605,55.203-16.658,80.711
			l27.58,11.951c12.698-29.302,19.136-60.479,19.136-92.662C511.659,170.938,487.398,112.366,443.345,68.314z"/>
	</g>
</g>
<g>
	<g>
		<path d="M242.96,218.763c1.269-1.407,3.136-2.993,5.604-4.758c2.465-1.761,5.145-3.523,8.036-5.287
			c2.888-1.761,5.815-3.489,8.776-5.181c2.961-1.692,5.498-3.172,7.613-4.441c3.1-1.831,6.133-3.84,9.094-6.027
			c2.96-2.184,5.637-4.721,8.036-7.612c2.395-2.888,4.335-6.166,5.815-9.834c1.48-3.665,2.221-7.825,2.221-12.477
			c0-11.278-4.055-20.229-12.16-26.858c-8.108-6.625-19.773-9.939-34.999-9.939c-6.205,0-12.16,0.566-17.87,1.692
			c-5.71,1.13-10.964,2.644-15.755,4.547c-4.795,1.903-9.094,4.055-12.9,6.45c-3.807,2.399-6.84,4.864-9.094,7.401l21.571,24.955
			c4.088-4.653,8.317-8.423,12.689-11.314c4.368-2.888,9.516-4.336,15.438-4.336c5.214,0,9.232,1.2,12.054,3.595
			c2.818,2.399,4.229,5.571,4.229,9.517c0,1.977-0.565,3.701-1.692,5.182c-1.13,1.478-2.997,3.138-5.604,4.968
			c-2.611,1.834-6.133,3.948-10.574,6.344c-4.441,2.398-9.976,5.429-16.601,9.093c-6.205,3.525-11.35,7.121-15.438,10.786
			c-4.09,3.667-7.332,7.65-9.728,11.948c-2.399,4.302-4.09,9.061-5.075,14.275c-0.988,5.217-1.48,11.139-1.48,17.764h105.315
			v-30.453H242.96z"/>
	</g>
</g>
<g>
	<g>
		<path d="M405.37,216.648v-88.186h-23.051v0.001l-68.941,88.397v30.241h58.156v28.972h33.836v-28.972h18.61v-30.453H405.37z
			 M375.552,216.649h-28.761l28.761-37.431V216.649z"/>
	</g>
</g>
<g>
	<g>
		
			<rect x="88.682" y="131.121" transform="matrix(0.7071 -0.7071 0.7071 0.7071 -112.7455 136.2387)" width="38.8" height="146.189"/>
	</g>
</g>
<g>
	<g>
		
			<rect x="287.952" y="331.474" transform="matrix(0.7071 -0.7071 0.7071 0.7071 -195.9197 336.1457)" width="39.703" height="146.189"/>
	</g>
</g>
<g>
	<g>
		<path d="M212.605,379.956c-14.656-10.786-28.926-23.069-42.601-36.743c-15.144-15.144-28.587-30.993-40.151-47.285L21.426,187.501
			l-4.313,4.313l-0.411,0.428c-20.068,21.719-21.73,57.82-4.677,101.652c15.613,40.134,45.514,83.539,84.197,122.222
			c39.146,39.146,83.007,69.222,123.504,84.688C239.305,508.281,257.281,512,273.093,512c20.069,0,36.65-5.997,48.561-17.909
			l2.543-2.543L212.605,379.956z"/>
	</g>
</g>
<g>
</g>
<g>
</g>
<g>
</g>
<g>
</g>
<g>
</g>
<g>
</g>
<g>
</g>
<g>
</g>
<g>
</g>
<g>
</g>
<g>
</g>
<g>
</g>
<g>
</g>
<g>
</g>
<g>
</g>
</svg>
