<?xml version="1.0" encoding="iso-8859-1"?>
<!-- Generator: Adobe Illustrator 19.0.0, SVG Export Plug-In . SVG Version: 6.00 Build 0)  -->
<svg version="1.1" id="Capa_1" xmlns="http://www.w3.org/2000/svg" xmlns:xlink="http://www.w3.org/1999/xlink" x="0px" y="0px"
	 viewBox="0 0 512 512" style="enable-background:new 0 0 512 512;" xml:space="preserve">
<g>
	<g>
		<path d="M156.758,174.179c-12.939,0-23.466,10.526-23.466,23.465c0,12.94,10.527,23.466,23.466,23.466
			c12.939,0,23.465-10.526,23.465-23.466C180.223,184.706,169.697,174.179,156.758,174.179z"/>
	</g>
</g>
<g>
	<g>
		<path d="M0,91.008v329.984h512V91.008H0z M156.758,144.18c29.481,0,53.465,23.984,53.465,53.465
			c0,29.482-23.984,53.466-53.465,53.466s-53.466-23.984-53.466-53.466C103.292,168.164,127.277,144.18,156.758,144.18z
			 M238.363,364.82h-30v-38.107c0-19.612-15.955-35.567-35.567-35.567h-31.004c-19.612,0-35.567,15.955-35.567,35.567v38.107h-30
			v-38.107c0-36.154,29.413-65.567,65.567-65.567h31.004c36.154,0,65.567,29.413,65.567,65.567V364.82z M426,339.355H296v-30h130
			V339.355z M426,271H296v-30h130V271z M426,202.645H296v-30h130V202.645z"/>
	</g>
</g>
<g>
</g>
<g>
</g>
<g>
</g>
<g>
</g>
<g>
</g>
<g>
</g>
<g>
</g>
<g>
</g>
<g>
</g>
<g>
</g>
<g>
</g>
<g>
</g>
<g>
</g>
<g>
</g>
<g>
</g>
</svg>
