<?xml version="1.0" encoding="iso-8859-1"?>
<!-- Generator: Adobe Illustrator 19.0.0, SVG Export Plug-In . SVG Version: 6.00 Build 0)  -->
<svg version="1.1" id="Capa_1" xmlns="http://www.w3.org/2000/svg" xmlns:xlink="http://www.w3.org/1999/xlink" x="0px" y="0px"
	 viewBox="0 0 512 512" style="enable-background:new 0 0 512 512;" xml:space="preserve">
<g>
	<g>
		<path d="M319.57,323.636H192.43c-47.512,0-86.167,38.654-86.167,86.167V512h299.474V409.802
			C405.737,362.29,367.083,323.636,319.57,323.636z"/>
	</g>
</g>
<g>
	<g>
		<path d="M256,0c-76.207,0-139.089,58.132-146.634,132.376v125.603c0.01,17.003,6.923,32.413,18.085,43.574
			c11.172,11.162,26.591,18.075,43.584,18.075h23.714V289.57h-24.476c-17.424,0-31.601-14.167-31.611-31.591h18.275
			c-4.759-11.292-7.394-23.696-7.394-36.711v-68.753c0-6.913,0.741-13.646,2.164-20.139h-12.093
			C147.019,74.744,196.385,30.058,256,30.058c59.605,0,108.981,44.686,116.385,102.318h-12.093
			c1.423,6.492,2.164,13.226,2.164,20.139v68.753c0,13.015-2.635,25.419-7.394,36.711h47.572V132.376
			C395.089,58.132,332.207,0,256,0z"/>
	</g>
</g>
<g>
	<g>
		<path d="M267.582,87.7h-23.165c-28.766,0-53.153,18.736-61.619,44.676c-2.074,6.332-3.196,13.105-3.196,20.139v15.73
			l134.37-60.988C302.209,95.184,285.768,87.7,267.582,87.7z"/>
	</g>
</g>
<g>
	<g>
		<path d="M329.482,133.238l-149.88,68.012v20.018c0,13.636,4.208,26.281,11.402,36.711c11.673,16.973,31.24,28.104,53.413,28.104
			h23.165c22.173,0,41.741-11.132,53.413-28.104c7.194-10.43,11.402-23.075,11.402-36.711v-68.753
			C332.397,145.802,331.375,139.33,329.482,133.238z"/>
	</g>
</g>
<g>
</g>
<g>
</g>
<g>
</g>
<g>
</g>
<g>
</g>
<g>
</g>
<g>
</g>
<g>
</g>
<g>
</g>
<g>
</g>
<g>
</g>
<g>
</g>
<g>
</g>
<g>
</g>
<g>
</g>
</svg>
