<?xml version="1.0" encoding="iso-8859-1"?>
<!-- Generator: Adobe Illustrator 19.0.0, SVG Export Plug-In . SVG Version: 6.00 Build 0)  -->
<svg version="1.1" id="Capa_1" xmlns="http://www.w3.org/2000/svg" xmlns:xlink="http://www.w3.org/1999/xlink" x="0px" y="0px"
	 viewBox="0 0 512 512" style="enable-background:new 0 0 512 512;" xml:space="preserve">
<g>
	<g>
		<path d="M415.906,350.336c-30.015,0-56.241,16.456-70.183,40.808L170.771,286.907c3.958-9.527,6.154-19.964,6.154-30.907
			s-2.197-21.38-6.155-30.908l174.953-104.236c13.942,24.352,40.168,40.809,70.184,40.809c44.571,0,80.832-36.261,80.832-80.832
			C496.739,36.262,460.479,0,415.906,0c-44.571,0-80.832,36.261-80.832,80.832c0,3.729,0.276,7.394,0.767,10.991L154.29,199.989
			c-14.715-15.284-35.357-24.821-58.198-24.821c-44.57,0-80.831,36.261-80.831,80.832s36.261,80.832,80.831,80.832
			c22.841,0,43.484-9.538,58.198-24.822l181.55,108.167c-0.491,3.597-0.767,7.261-0.767,10.991
			c0,44.571,36.261,80.832,80.832,80.832c44.571,0,80.832-36.261,80.832-80.832C496.737,386.597,460.479,350.336,415.906,350.336z"
			/>
	</g>
</g>
<g>
</g>
<g>
</g>
<g>
</g>
<g>
</g>
<g>
</g>
<g>
</g>
<g>
</g>
<g>
</g>
<g>
</g>
<g>
</g>
<g>
</g>
<g>
</g>
<g>
</g>
<g>
</g>
<g>
</g>
</svg>
